<svg width="160" height="130" viewBox="0 0 160 130" fill="none" xmlns="http://www.w3.org/2000/svg">
<path d="M0 16C0 7.16344 7.16344 0 16 0H144C152.837 0 160 7.16344 160 16V113.926C160 122.762 152.837 129.926 144 129.926H16C7.16345 129.926 0 122.762 0 113.926V16Z" fill="white"/>
<path d="M16 0.5H144C152.56 0.5 159.5 7.43959 159.5 16V113.926C159.5 122.486 152.56 129.426 144 129.426H16C7.4396 129.426 0.500025 122.486 0.5 113.926V16C0.5 7.43959 7.43959 0.5 16 0.5Z" stroke="black" stroke-opacity="0.1"/>
<path d="M23.8007 18.9333L20.5673 13.6533C20.5075 13.5568 20.4241 13.4772 20.3249 13.422C20.2258 13.3668 20.1141 13.3378 20.0007 13.3378C19.8872 13.3378 19.7755 13.3668 19.6764 13.422C19.5772 13.4772 19.4938 13.5568 19.434 13.6533L16.2007 18.9333C15.635 19.8563 15.3351 20.9175 15.334 22C15.334 23.2377 15.8256 24.4246 16.7008 25.2998C17.576 26.175 18.763 26.6666 20.0007 26.6666C21.2383 26.6666 22.4253 26.175 23.3005 25.2998C24.1757 24.4246 24.6673 23.2377 24.6673 22C24.6662 20.9175 24.3663 19.8563 23.8007 18.9333ZM18.1673 18.6666C18.3321 18.6666 18.4933 18.7155 18.6303 18.8071C18.7673 18.8987 18.8741 19.0288 18.9372 19.1811C19.0003 19.3333 19.0168 19.5009 18.9846 19.6625C18.9525 19.8242 18.8731 19.9727 18.7566 20.0892C18.64 20.2058 18.4915 20.2851 18.3299 20.3173C18.1682 20.3495 18.0007 20.3329 17.8484 20.2699C17.6961 20.2068 17.566 20.1 17.4744 19.9629C17.3829 19.8259 17.334 19.6648 17.334 19.5C17.334 19.279 17.4218 19.067 17.5781 18.9107C17.7343 18.7544 17.9463 18.6666 18.1673 18.6666ZM21.834 24C21.6692 24 21.5081 23.9511 21.371 23.8595C21.234 23.768 21.1272 23.6378 21.0641 23.4855C21.001 23.3333 20.9845 23.1657 21.0167 23.0041C21.0488 22.8424 21.1282 22.6939 21.2447 22.5774C21.3613 22.4608 21.5098 22.3815 21.6714 22.3493C21.8331 22.3172 22.0006 22.3337 22.1529 22.3967C22.3052 22.4598 22.4353 22.5666 22.5269 22.7037C22.6184 22.8407 22.6673 23.0018 22.6673 23.1666C22.6673 23.3877 22.5795 23.5996 22.4232 23.7559C22.267 23.9122 22.055 24 21.834 24ZM22.5007 19.8066L18.5007 23.8066C18.4387 23.8691 18.3649 23.9187 18.2837 23.9526C18.2025 23.9864 18.1153 24.0038 18.0273 24.0038C17.9393 24.0038 17.8522 23.9864 17.7709 23.9526C17.6897 23.9187 17.616 23.8691 17.554 23.8066C17.4915 23.7447 17.4419 23.6709 17.4081 23.5897C17.3742 23.5085 17.3568 23.4213 17.3568 23.3333C17.3568 23.2453 17.3742 23.1582 17.4081 23.0769C17.4419 22.9957 17.4915 22.922 17.554 22.86L21.554 18.86C21.6795 18.7344 21.8498 18.6639 22.0273 18.6639C22.2049 18.6639 22.3751 18.7344 22.5007 18.86C22.6262 18.9855 22.6967 19.1558 22.6967 19.3333C22.6967 19.5108 22.6262 19.6811 22.5007 19.8066Z" fill="#14B866"/>
<path d="M38.052 15.48V24H36.408V20.364H32.544V24H30.888V15.48H32.544V18.924H36.408V15.48H38.052ZM39.5534 21.648V17.712H41.1614V21.3C41.1614 21.78 41.2494 22.144 41.4254 22.392C41.6014 22.632 41.8614 22.752 42.2054 22.752C42.4134 22.752 42.6174 22.712 42.8174 22.632C43.0254 22.544 43.2134 22.416 43.3814 22.248C43.5574 22.08 43.7054 21.868 43.8254 21.612V17.712H45.4334V22.2C45.4334 22.368 45.4614 22.488 45.5174 22.56C45.5814 22.632 45.6814 22.676 45.8174 22.692V24C45.6574 24.024 45.5214 24.04 45.4094 24.048C45.3054 24.064 45.2094 24.072 45.1214 24.072C44.8334 24.072 44.5974 24.008 44.4134 23.88C44.2374 23.744 44.1334 23.56 44.1014 23.328L44.0654 22.824C43.7854 23.248 43.4254 23.572 42.9854 23.796C42.5454 24.012 42.0614 24.12 41.5334 24.12C40.8854 24.12 40.3934 23.912 40.0574 23.496C39.7214 23.072 39.5534 22.456 39.5534 21.648ZM56.7394 24H55.1314V20.472C55.1314 19.976 55.0434 19.612 54.8674 19.38C54.6994 19.14 54.4634 19.02 54.1594 19.02C53.8474 19.02 53.5474 19.144 53.2594 19.392C52.9794 19.632 52.7794 19.948 52.6594 20.34V24H51.0514V20.472C51.0514 19.968 50.9634 19.6 50.7874 19.368C50.6194 19.136 50.3834 19.02 50.0794 19.02C49.7674 19.02 49.4674 19.14 49.1794 19.38C48.8994 19.62 48.6994 19.936 48.5794 20.328V24H46.9714V17.712H48.4234V18.876C48.6634 18.468 48.9834 18.156 49.3834 17.94C49.7834 17.716 50.2434 17.604 50.7634 17.604C51.2834 17.604 51.6874 17.732 51.9754 17.988C52.2714 18.244 52.4594 18.56 52.5394 18.936C52.7954 18.504 53.1194 18.176 53.5114 17.952C53.9114 17.72 54.3594 17.604 54.8554 17.604C55.2474 17.604 55.5634 17.676 55.8034 17.82C56.0514 17.956 56.2434 18.144 56.3794 18.384C56.5154 18.616 56.6074 18.88 56.6554 19.176C56.7114 19.472 56.7394 19.772 56.7394 20.076V24ZM58.0793 24V17.712H59.6873V24H58.0793ZM58.0793 16.836V15.24H59.6873V16.836H58.0793ZM60.6939 20.856C60.6939 20.248 60.8139 19.7 61.0539 19.212C61.2939 18.716 61.6259 18.324 62.0499 18.036C62.4739 17.748 62.9579 17.604 63.5019 17.604C63.9659 17.604 64.3819 17.72 64.7499 17.952C65.1259 18.176 65.4179 18.464 65.6259 18.816V15.24H67.2339V22.2C67.2339 22.368 67.2619 22.488 67.3179 22.56C67.3739 22.632 67.4699 22.676 67.6059 22.692V24C67.3259 24.056 67.0979 24.084 66.9219 24.084C66.6339 24.084 66.3939 24.012 66.2019 23.868C66.0179 23.724 65.9139 23.536 65.8899 23.304L65.8659 22.908C65.6339 23.3 65.3179 23.6 64.9179 23.808C64.5259 24.016 64.1139 24.12 63.6819 24.12C63.2499 24.12 62.8499 24.036 62.4819 23.868C62.1219 23.7 61.8059 23.468 61.5339 23.172C61.2699 22.876 61.0619 22.532 60.9099 22.14C60.7659 21.74 60.6939 21.312 60.6939 20.856ZM65.6259 21.696V20.196C65.5459 19.964 65.4179 19.756 65.2419 19.572C65.0659 19.388 64.8699 19.244 64.6539 19.14C64.4379 19.028 64.2219 18.972 64.0059 18.972C63.7579 18.972 63.5339 19.024 63.3339 19.128C63.1339 19.232 62.9579 19.372 62.8059 19.548C62.6619 19.724 62.5499 19.928 62.4699 20.16C62.3979 20.392 62.3619 20.636 62.3619 20.892C62.3619 21.148 62.4019 21.392 62.4819 21.624C62.5699 21.848 62.6939 22.044 62.8539 22.212C63.0139 22.38 63.1979 22.512 63.4059 22.608C63.6219 22.704 63.8539 22.752 64.1019 22.752C64.2539 22.752 64.4059 22.728 64.5579 22.68C64.7179 22.624 64.8659 22.552 65.0019 22.464C65.1459 22.368 65.2699 22.256 65.3739 22.128C65.4859 21.992 65.5699 21.848 65.6259 21.696ZM68.7523 24V17.712H70.3603V24H68.7523ZM68.7523 16.836V15.24H70.3603V16.836H68.7523ZM75.5189 23.676C75.3829 23.732 75.2189 23.796 75.0269 23.868C74.8349 23.94 74.6269 23.996 74.4029 24.036C74.1869 24.084 73.9669 24.108 73.7429 24.108C73.4469 24.108 73.1749 24.056 72.9269 23.952C72.6789 23.848 72.4789 23.684 72.3269 23.46C72.1829 23.228 72.1109 22.928 72.1109 22.56V18.948H71.2829V17.712H72.1109V15.672H73.7189V17.712H75.0389V18.948H73.7189V22.02C73.7269 22.236 73.7869 22.392 73.8989 22.488C74.0109 22.584 74.1509 22.632 74.3189 22.632C74.4869 22.632 74.6509 22.604 74.8109 22.548C74.9709 22.492 75.0989 22.444 75.1949 22.404L75.5189 23.676ZM76.4049 25.224C76.5489 25.256 76.6809 25.284 76.8009 25.308C76.9289 25.332 77.0369 25.344 77.1249 25.344C77.2769 25.344 77.4009 25.304 77.4969 25.224C77.6009 25.152 77.7009 25.016 77.7969 24.816C77.8929 24.624 77.9929 24.352 78.0969 24L75.6129 17.712H77.2809L78.9729 22.356L80.4609 17.712H81.9969L79.3569 25.248C79.2609 25.528 79.1129 25.78 78.9129 26.004C78.7209 26.236 78.4769 26.416 78.1809 26.544C77.8929 26.68 77.5689 26.748 77.2089 26.748C77.0809 26.748 76.9529 26.736 76.8249 26.712C76.6969 26.696 76.5569 26.664 76.4049 26.616V25.224ZM82.0246 24V22.272H83.3446V24H82.0246Z" fill="#141414"/>
<path d="M48.1201 53.5353C43.2864 58.0083 39.421 63.4248 36.7626 69.4502C34.8172 73.8597 33.5484 78.5268 32.99 83.2941C32.6511 86.1878 35.0384 88.5637 37.9519 88.5897C41.4204 88.6208 43.8204 88.6754 48.5258 88.6941C50.4493 88.7018 51.994 87.1425 52.2384 85.2346C52.5902 82.4886 53.3363 79.8014 54.4586 77.2575C56.0499 73.6509 58.3636 70.4088 61.2568 67.7314L48.1201 53.5353Z" fill="#D9D9D9"/>
<path d="M123.778 88.8975C126.678 88.8975 129.06 86.5398 128.745 83.6576C127.603 73.2166 123.071 63.3803 115.768 55.6989L101.75 69.0258C106.038 73.5365 108.731 79.2886 109.477 85.406C109.711 87.3247 111.257 88.8975 113.19 88.8975C117.075 88.8975 119.811 88.8975 123.778 88.8975Z" fill="#39BD64"/>
<path d="M57.5574 46.7134C54.0851 48.6306 50.8628 50.9692 47.9636 53.6762L61.1636 67.8134C62.899 66.1931 64.8278 64.7933 66.9062 63.6458L57.5574 46.7134Z" fill="#F7AB20"/>
<path d="M119.18 59.7038C117.367 57.3233 115.337 55.1168 113.115 53.1129L100.161 67.4763C101.491 68.6757 102.706 69.9965 103.791 71.4214L119.18 59.7038Z" fill="#F7AB20"/>
<path d="M113.538 53.4998C104.592 45.2362 92.8485 40.6672 80.6698 40.7117C68.4912 40.7562 56.7812 45.411 47.8956 53.7398L61.1229 67.8515C66.4416 62.8662 73.4508 60.08 80.7406 60.0533C88.0303 60.0267 95.0597 62.7616 100.415 67.7078L113.538 53.4998Z" fill="#F7AB20"/>
<path d="M90.758 41.7419C83.4806 40.2121 75.9477 40.3875 68.7494 42.2546L73.6053 60.9768C77.9141 59.8593 82.423 59.7543 86.779 60.67L90.758 41.7419Z" fill="#177FFF"/>
<path d="M68.8763 42.2219C61.6728 44.0693 54.9948 47.5591 49.3651 52.4179L62.0025 67.0603C65.3723 64.1519 69.3696 62.0631 73.6813 60.9572L68.8763 42.2219Z" fill="#58A3FF"/>
<path d="M49.5485 52.2604C43.8945 57.091 39.4354 63.1647 36.5203 70.0061L54.314 77.588C56.0589 73.493 58.728 69.8574 62.1123 66.966L49.5485 52.2604Z" fill="#AAD0FF"/>
<path d="M110.485 50.9061C104.622 46.3315 97.7796 43.1762 90.4937 41.6871L86.6208 60.6372C90.9819 61.5285 95.0775 63.4172 98.587 66.1554L110.485 50.9061Z" fill="#006AEC"/>
<path d="M126.714 88.8933C127.992 88.8933 129.034 87.8568 128.972 86.5805C128.597 78.7738 126.328 71.1745 122.362 64.4402C121.713 63.3393 120.274 63.0436 119.205 63.7441L106.899 71.812C105.831 72.5126 105.542 73.9429 106.154 75.0641C108.097 78.6191 109.269 82.5441 109.593 86.5822C109.696 87.8558 110.722 88.8933 112 88.8933H126.714Z" fill="#00469B"/>
<path d="M124.141 67.7503C120.878 61.068 116.112 55.2317 110.217 50.6985L98.4266 66.0311C101.955 68.7446 104.808 72.238 106.761 76.2378L124.141 67.7503Z" fill="#0656B7"/>
<path d="M95.3118 51.1835C96.4387 49.3132 97.0021 48.378 97.2462 48.3345C97.4549 48.2974 97.6628 48.3847 97.7732 48.5561C97.9023 48.7565 97.5433 49.7776 96.8254 51.8198L85.3453 84.4745C84.4862 86.9182 81.6546 88.166 79.2563 87.1578C76.858 86.1495 75.9453 83.3276 77.2937 81.0895L95.3118 51.1835Z" fill="#141414"/>
<ellipse cx="3.26733" cy="2.71781" rx="3.26733" ry="2.71781" transform="matrix(0.928584 0.371123 -0.444335 0.895861 79.209 80.0956)" fill="#E0E0E0"/>
<path d="M65.4861 108.624C65.4861 109.464 65.2761 110.22 64.8561 110.892C64.4481 111.564 63.8841 112.104 63.1641 112.512C62.4561 112.908 61.6581 113.106 60.7701 113.106C59.7741 113.106 58.9221 112.866 58.2141 112.386C57.5061 111.906 56.9601 111.216 56.5761 110.316C56.2041 109.404 56.0181 108.312 56.0181 107.04C56.0181 105.552 56.2221 104.286 56.6301 103.242C57.0381 102.198 57.6141 101.406 58.3581 100.866C59.1141 100.314 60.0141 100.038 61.0581 100.038C61.8501 100.038 62.5881 100.206 63.2721 100.542C63.9561 100.866 64.5501 101.328 65.0541 101.928L63.4341 103.764C63.1341 103.38 62.7741 103.08 62.3541 102.864C61.9341 102.648 61.4841 102.54 61.0041 102.54C60.5481 102.54 60.1461 102.654 59.7981 102.882C59.4501 103.11 59.1801 103.44 58.9881 103.872C58.7961 104.304 58.6881 104.826 58.6641 105.438C58.8321 105.21 59.0301 105.024 59.2581 104.88C59.4861 104.724 59.7501 104.61 60.0501 104.538C60.3501 104.454 60.6741 104.412 61.0221 104.412C61.8741 104.412 62.6361 104.598 63.3081 104.97C63.9801 105.342 64.5081 105.846 64.8921 106.482C65.2881 107.106 65.4861 107.82 65.4861 108.624ZM60.7701 110.676C61.1301 110.676 61.4541 110.586 61.7421 110.406C62.0421 110.214 62.2821 109.962 62.4621 109.65C62.6541 109.338 62.7501 108.996 62.7501 108.624C62.7501 108.264 62.6601 107.94 62.4801 107.652C62.3001 107.352 62.0601 107.118 61.7601 106.95C61.4601 106.77 61.1301 106.68 60.7701 106.68C60.4101 106.68 60.0801 106.77 59.7801 106.95C59.4801 107.118 59.2401 107.352 59.0601 107.652C58.8801 107.94 58.7901 108.27 58.7901 108.642C58.7901 109.002 58.8801 109.338 59.0601 109.65C59.2521 109.962 59.4981 110.214 59.7981 110.406C60.0981 110.586 60.4221 110.676 60.7701 110.676ZM76.2933 109.056C76.2933 109.86 76.0773 110.568 75.6453 111.18C75.2253 111.78 74.6553 112.248 73.9353 112.584C73.2153 112.92 72.4233 113.088 71.5593 113.088C70.7073 113.088 69.9213 112.92 69.2013 112.584C68.4933 112.236 67.9233 111.75 67.4913 111.126C67.0593 110.502 66.8433 109.776 66.8433 108.948C66.8433 108.492 66.9333 108.084 67.1133 107.724C67.2933 107.352 67.5213 107.028 67.7973 106.752C68.0853 106.476 68.3613 106.26 68.6253 106.104C68.3613 105.948 68.1213 105.756 67.9053 105.528C67.7013 105.288 67.5333 105.024 67.4013 104.736C67.2813 104.436 67.2213 104.13 67.2213 103.818C67.2213 103.218 67.3533 102.69 67.6173 102.234C67.8813 101.778 68.2293 101.394 68.6613 101.082C69.0933 100.77 69.5613 100.536 70.0653 100.38C70.5813 100.224 71.0793 100.146 71.5593 100.146C72.0513 100.146 72.5553 100.224 73.0713 100.38C73.5873 100.536 74.0613 100.77 74.4933 101.082C74.9253 101.382 75.2733 101.76 75.5373 102.216C75.8013 102.672 75.9333 103.194 75.9333 103.782C75.9333 104.094 75.8673 104.406 75.7353 104.718C75.6033 105.018 75.4293 105.288 75.2133 105.528C74.9973 105.768 74.7573 105.96 74.4933 106.104C74.7933 106.272 75.0813 106.5 75.3573 106.788C75.6333 107.064 75.8553 107.394 76.0233 107.778C76.2033 108.15 76.2933 108.576 76.2933 109.056ZM73.3773 108.876C73.3773 108.624 73.3293 108.402 73.2333 108.21C73.1373 108.006 72.9993 107.838 72.8193 107.706C72.6513 107.562 72.4593 107.46 72.2433 107.4C72.0273 107.328 71.7993 107.292 71.5593 107.292C71.2353 107.292 70.9353 107.358 70.6593 107.49C70.3833 107.622 70.1613 107.808 69.9933 108.048C69.8373 108.276 69.7593 108.558 69.7593 108.894C69.7593 109.122 69.8073 109.338 69.9033 109.542C70.0113 109.734 70.1493 109.902 70.3173 110.046C70.4853 110.19 70.6773 110.298 70.8933 110.37C71.1093 110.442 71.3373 110.478 71.5773 110.478C71.9013 110.478 72.1953 110.412 72.4593 110.28C72.7353 110.136 72.9573 109.944 73.1253 109.704C73.2933 109.464 73.3773 109.188 73.3773 108.876ZM70.1373 103.872C70.1373 104.148 70.2093 104.382 70.3533 104.574C70.4973 104.754 70.6773 104.892 70.8933 104.988C71.1213 105.084 71.3433 105.132 71.5593 105.132C71.7993 105.132 72.0273 105.084 72.2433 104.988C72.4593 104.892 72.6393 104.754 72.7833 104.574C72.9273 104.382 72.9993 104.148 72.9993 103.872C72.9993 103.644 72.9333 103.44 72.8013 103.26C72.6813 103.08 72.5133 102.942 72.2973 102.846C72.0813 102.738 71.8353 102.684 71.5593 102.684C71.2953 102.684 71.0553 102.738 70.8393 102.846C70.6233 102.942 70.4493 103.08 70.3173 103.26C70.1973 103.44 70.1373 103.644 70.1373 103.872ZM77.9209 112.926V109.992H80.2789V112.926H77.9209ZM90.0575 110.334V112.926H82.2815V110.334H84.8375V105.744C84.7295 105.888 84.5615 106.032 84.3335 106.176C84.1055 106.32 83.8475 106.458 83.5595 106.59C83.2835 106.722 83.0015 106.83 82.7135 106.914C82.4255 106.986 82.1615 107.022 81.9215 107.022V104.358C82.1255 104.358 82.3775 104.298 82.6775 104.178C82.9775 104.046 83.2775 103.884 83.5775 103.692C83.8895 103.5 84.1595 103.308 84.3875 103.116C84.6275 102.924 84.7775 102.768 84.8375 102.648H87.7715V110.334H90.0575Z" fill="#141414"/>
<path d="M100.618 103.262H101.698L96.9098 112.19H95.8058L100.618 103.262ZM97.6298 105.866C97.6298 106.594 97.4578 107.154 97.1138 107.546C96.7698 107.938 96.2858 108.134 95.6618 108.134C95.0218 108.134 94.5378 107.942 94.2098 107.558C93.8898 107.166 93.7298 106.59 93.7298 105.83C93.7298 105.366 93.8018 104.958 93.9458 104.606C94.0978 104.246 94.3218 103.966 94.6178 103.766C94.9218 103.558 95.2898 103.454 95.7218 103.454C96.3778 103.454 96.8578 103.674 97.1618 104.114C97.4738 104.546 97.6298 105.13 97.6298 105.866ZM95.6738 107.234C95.9538 107.234 96.1458 107.114 96.2498 106.874C96.3618 106.626 96.4178 106.29 96.4178 105.866C96.4178 105.466 96.3738 105.114 96.2858 104.81C96.1978 104.506 96.0098 104.354 95.7218 104.354C95.4098 104.354 95.2018 104.498 95.0978 104.786C94.9938 105.066 94.9418 105.426 94.9418 105.866C94.9418 106.122 94.9538 106.346 94.9778 106.538C95.0098 106.722 95.0778 106.886 95.1818 107.03C95.2938 107.166 95.4578 107.234 95.6738 107.234ZM103.654 109.766C103.654 110.246 103.578 110.662 103.426 111.014C103.274 111.358 103.05 111.626 102.754 111.818C102.458 112.002 102.102 112.094 101.686 112.094C101.038 112.094 100.554 111.886 100.234 111.47C99.9138 111.054 99.7538 110.474 99.7538 109.73C99.7538 109.282 99.8258 108.886 99.9698 108.542C100.122 108.19 100.346 107.914 100.642 107.714C100.938 107.514 101.302 107.414 101.734 107.414C102.366 107.414 102.842 107.614 103.162 108.014C103.49 108.414 103.654 108.998 103.654 109.766ZM101.698 111.194C101.97 111.194 102.162 111.07 102.274 110.822C102.386 110.566 102.442 110.206 102.442 109.742C102.442 109.262 102.382 108.906 102.262 108.674C102.15 108.434 101.97 108.314 101.722 108.314C101.402 108.314 101.194 108.458 101.098 108.746C101.01 109.026 100.966 109.358 100.966 109.742C100.966 110.006 100.978 110.238 101.002 110.438C101.034 110.638 101.102 110.814 101.206 110.966C101.31 111.118 101.474 111.194 101.698 111.194Z" fill="#141414"/>
</svg>
