<svg width="230" height="134" viewBox="0 0 230 134" fill="none" xmlns="http://www.w3.org/2000/svg">
<path d="M222.1 131.195C226.552 131.195 230.19 127.581 229.879 123.14C228.828 108.148 224.852 93.5062 218.177 80.0421C216.199 76.0533 211.233 74.776 207.392 77.0277C203.551 79.2795 202.296 84.2063 204.228 88.2174C209.507 99.1773 212.722 111.017 213.711 123.142C214.073 127.579 217.648 131.195 222.1 131.195Z" fill="#E30513"/>
<path d="M156.496 23.7697C128.006 12.7641 96.3097 13.5273 68.3815 25.8912L74.9081 40.6337C98.9264 30.0007 126.185 29.3444 150.687 38.8092L156.496 23.7697Z" fill="#049B52"/>
<path d="M64.7914 27.555C55.5727 32.021 46.9911 37.697 39.2737 44.4328L49.8753 56.5795C56.5123 50.7867 63.8925 45.9053 71.8206 42.0645L64.7914 27.555Z" fill="#FEF2DD"/>
<path d="M65.3431 27.2895C50.5099 34.3784 37.3663 44.561 26.7963 57.1528L39.1448 67.5187C48.235 56.6897 59.5385 47.9326 72.2951 41.8362L65.3431 27.2895Z" fill="#FFCBAD"/>
<path d="M202.36 56.1596C190.758 42.6518 176.182 32.0185 159.776 25.0951L153.508 39.949C167.616 45.9031 180.152 55.0478 190.13 66.6645L202.36 56.1596Z" fill="#FFCBAD"/>
<path d="M224.738 96.2725C219.881 81.0096 211.894 66.9278 201.286 54.9268L189.206 65.6043C198.328 75.9252 205.198 88.0356 209.375 101.162L224.738 96.2725Z" fill="#FF6457"/>
<path d="M17.2008 87.5403C13.1353 85.7256 8.33984 87.5423 6.81393 91.7248C3.18308 101.677 0.942738 112.083 0.156482 122.647C-0.17395 127.087 3.44905 130.716 7.90113 130.735C12.3532 130.755 15.9437 127.155 16.3247 122.719C17.0397 114.395 18.8053 106.194 21.5792 98.313C23.0574 94.1134 21.2663 89.355 17.2008 87.5403Z" fill="#E30513"/>
<path d="M28.5556 55.1061C18.5658 66.4555 10.9088 79.6611 6.02136 93.969L21.2784 99.1806C25.4815 86.8757 32.0666 75.519 40.6578 65.7585L28.5556 55.1061Z" fill="#FF6457"/>
<g opacity="0.8">
<path d="M18.9549 59.0219C18.9563 58.9164 18.9592 58.8327 18.9637 58.7709C18.9635 58.705 18.9664 58.6214 18.9725 58.5199C19.0134 57.6606 19.0243 56.968 19.0051 56.4423C18.9899 55.9119 18.9243 55.4443 18.8082 55.0395C18.6914 54.626 18.4997 54.3034 18.2332 54.0717C18.0321 53.8969 17.8309 53.7836 17.6296 53.7318C17.4283 53.68 17.2357 53.689 17.0517 53.759C16.8678 53.829 16.6985 53.9528 16.544 54.1305C16.3896 54.3082 16.2888 54.4997 16.2416 54.7051C16.1898 54.9064 16.1972 55.1057 16.2637 55.3031C16.3343 55.4958 16.4607 55.6715 16.6431 55.83L16.6712 55.8544L16.0614 56.5559L16.0333 56.5315C15.734 56.2713 15.5331 55.9735 15.4306 55.6381C15.3281 55.3026 15.3194 54.9584 15.4045 54.6055C15.4937 54.2479 15.6765 53.9101 15.953 53.5921C16.2294 53.2741 16.5321 53.0486 16.861 52.9158C17.1853 52.779 17.5145 52.745 17.8487 52.8138C18.183 52.8827 18.5021 53.0492 18.8061 53.3135C19.1474 53.6103 19.3906 53.9776 19.5354 54.4155C19.6843 54.8487 19.7697 55.3171 19.7918 55.8207C19.8179 56.3196 19.8068 56.9462 19.7585 57.7007L19.7497 57.9517L19.7637 57.9639L21.7334 55.6981L22.3507 56.2347L19.509 59.5036L18.9549 59.0219ZM24.3869 54.1048C24.1145 54.4181 23.8189 54.6496 23.4999 54.7993C23.185 54.9443 22.862 55.0042 22.5308 54.9791C22.199 54.9452 21.878 54.8139 21.5677 54.5852L22.1775 53.8837C22.3615 54.0026 22.5485 54.0708 22.7386 54.0883C22.9287 54.1057 23.1151 54.0707 23.2979 53.9833C23.4806 53.8958 23.6513 53.7609 23.8098 53.5785C23.9887 53.3728 24.0961 53.15 24.1321 52.9103C24.1674 52.6619 24.1351 52.4204 24.0353 52.1858C23.9354 51.9512 23.7826 51.7445 23.5768 51.5656C23.3664 51.3826 23.1427 51.2621 22.9059 51.204C22.6644 51.1418 22.4297 51.1473 22.2021 51.2203C21.9744 51.2933 21.7731 51.4304 21.5983 51.6315C21.4276 51.8279 21.3105 52.0381 21.2471 52.2622C21.1837 52.4862 21.1845 52.7167 21.2494 52.9538L20.6945 53.5921L18.5075 50.8659L20.7394 48.2985L21.3286 48.8107L19.5419 50.866L20.7342 52.3705L20.7534 52.3626C20.7328 52.1312 20.7624 51.8942 20.842 51.6514C20.9258 51.404 21.0632 51.1704 21.2542 50.9506C21.5063 50.6606 21.7977 50.4623 22.1284 50.3558C22.4633 50.2445 22.8071 50.2314 23.1601 50.3166C23.513 50.4017 23.8462 50.5804 24.1595 50.8528C24.4962 51.1455 24.7325 51.4782 24.8684 51.8508C25.0083 52.2188 25.0372 52.6011 24.9552 52.9977C24.8771 53.3897 24.6877 53.7587 24.3869 54.1048Z" fill="#191B1E"/>
</g>
<g opacity="0.8">
<path d="M111.515 9.13942C111.099 9.13942 110.731 9.06816 110.408 8.92564C110.092 8.78312 109.835 8.57864 109.637 8.31219C109.445 8.03954 109.333 7.71112 109.302 7.32694H110.232C110.263 7.54382 110.334 7.72971 110.446 7.88462C110.557 8.03954 110.706 8.15727 110.892 8.23783C111.078 8.31838 111.291 8.35866 111.533 8.35866C111.806 8.35866 112.044 8.2936 112.249 8.16347C112.46 8.02714 112.621 7.84435 112.732 7.61508C112.844 7.3858 112.899 7.13484 112.899 6.8622C112.899 6.58335 112.844 6.33549 112.732 6.11861C112.621 5.89554 112.463 5.72204 112.258 5.5981C112.054 5.47417 111.818 5.41221 111.552 5.41221C111.291 5.41221 111.056 5.46178 110.845 5.56093C110.635 5.66007 110.461 5.81188 110.325 6.01637H109.479L110.102 2.5773L113.504 2.5773V3.35806L110.78 3.35806L110.427 5.2449L110.446 5.2542C110.607 5.08689 110.805 4.95367 111.041 4.85452C111.282 4.75538 111.549 4.7058 111.84 4.7058C112.224 4.7058 112.565 4.79565 112.862 4.97535C113.166 5.15505 113.401 5.40601 113.569 5.72823C113.736 6.05045 113.82 6.41914 113.82 6.83431C113.82 7.28046 113.724 7.67704 113.532 8.02405C113.346 8.37105 113.076 8.6437 112.723 8.84199C112.376 9.04028 111.973 9.13942 111.515 9.13942ZM116.763 9.13942C116.273 9.13942 115.858 9.01549 115.517 8.76763C115.177 8.51357 114.916 8.13558 114.737 7.63366C114.563 7.13175 114.476 6.51519 114.476 5.784C114.476 5.04661 114.563 4.43006 114.737 3.93434C114.916 3.43861 115.177 3.06682 115.517 2.81896C115.858 2.5649 116.273 2.43787 116.763 2.43787C117.259 2.43787 117.677 2.5649 118.018 2.81896C118.359 3.07302 118.616 3.44791 118.789 3.94363C118.969 4.43935 119.059 5.04971 119.059 5.77471C119.059 6.51209 118.969 7.13175 118.789 7.63366C118.616 8.12939 118.356 8.50428 118.009 8.75834C117.668 9.01239 117.253 9.13942 116.763 9.13942ZM116.763 8.36795C117.246 8.36795 117.593 8.13868 117.804 7.68014C118.021 7.2154 118.129 6.57716 118.129 5.76541C118.129 4.95367 118.021 4.32472 117.804 3.87857C117.587 3.43242 117.237 3.20934 116.754 3.20934C116.431 3.20934 116.168 3.32088 115.964 3.54395C115.759 3.76083 115.614 4.05827 115.527 4.43625C115.44 4.81424 115.397 5.2573 115.397 5.76541C115.397 6.28592 115.44 6.73827 115.527 7.12245C115.62 7.50664 115.765 7.81027 115.964 8.03334C116.168 8.25642 116.435 8.36795 116.763 8.36795Z" fill="#191B1E"/>
</g>
<g opacity="0.8">
<path d="M205.248 49.6593C206.097 49.3388 207.081 49.0281 208.201 48.7273C209.324 48.4312 210.299 48.212 211.125 48.0697L209.077 45.5415L209.742 45.0034L212.403 48.29L211.789 48.7872C211.224 48.8864 210.586 49.0286 209.874 49.2138C209.168 49.3951 208.464 49.5986 207.762 49.8244C207.064 50.0463 206.447 50.2633 205.909 50.4756L205.248 49.6593ZM208.951 54.4544C208.69 54.1318 208.513 53.8004 208.421 53.4603C208.333 53.125 208.33 52.7965 208.413 52.4747C208.504 52.1538 208.689 51.8605 208.968 51.5946L209.553 52.3169C209.404 52.4775 209.304 52.6499 209.254 52.834C209.204 53.0182 209.206 53.2079 209.26 53.403C209.315 53.5982 209.418 53.7897 209.57 53.9775C209.741 54.1894 209.942 54.3338 210.172 54.4109C210.41 54.4888 210.654 54.499 210.902 54.4414C211.151 54.3838 211.381 54.2692 211.593 54.0976C211.809 53.9221 211.967 53.7228 212.065 53.4996C212.168 53.2725 212.204 53.0406 212.171 52.8037C212.139 52.5667 212.039 52.3448 211.871 52.1377C211.708 51.9354 211.521 51.7836 211.311 51.6823C211.102 51.581 210.874 51.5417 210.63 51.5644L210.097 50.9071L213.162 49.2268L215.303 51.8705L214.696 52.3619L212.982 50.2454L211.294 51.1584L211.298 51.1787C211.529 51.1986 211.758 51.2688 211.983 51.3894C212.212 51.5148 212.418 51.6907 212.602 51.9171C212.843 52.2156 212.988 52.537 213.036 52.8813C213.087 53.2303 213.04 53.5712 212.895 53.904C212.75 54.2368 212.516 54.5339 212.193 54.7952C211.847 55.0759 211.478 55.2509 211.087 55.32C210.701 55.3939 210.319 55.356 209.943 55.2063C209.57 55.0614 209.24 54.8108 208.951 54.4544Z" fill="#191B1E"/>
</g>
<path d="M182.455 33.9069L170.327 51.887" stroke="white" stroke-width="10.8439" stroke-linecap="round"/>
<path d="M182.455 33.9069L170.327 51.887" stroke="#0D0D0E" stroke-width="3.37589" stroke-linecap="round"/>
<path d="M91.5681 95.415C91.7333 95.3158 91.8903 95.2249 92.039 95.1423C92.1877 95.0432 92.3447 94.9358 92.51 94.8201C94.2119 93.746 95.5752 92.8455 96.5997 92.1184C97.6242 91.3913 98.4999 90.6147 99.227 89.7885C99.9541 88.9623 100.318 88.1609 100.318 87.3843C100.318 86.9546 100.243 86.5911 100.095 86.2937C99.9458 85.9797 99.7227 85.7484 99.4253 85.5997C99.1444 85.4344 98.8056 85.3518 98.4091 85.3518C97.9464 85.3518 97.5581 85.4427 97.2441 85.6244C96.9302 85.8062 96.6823 86.0871 96.5005 86.4672C96.3353 86.8307 96.2527 87.2851 96.2527 87.8304V87.88H91.4937V87.8056C91.4937 86.5498 91.7829 85.4427 92.3612 84.4843C92.9396 83.5259 93.7658 82.7823 94.8399 82.2535C95.9139 81.7082 97.1698 81.4356 98.6073 81.4356C99.9788 81.4356 101.169 81.6669 102.177 82.1296C103.185 82.5923 103.953 83.2532 104.482 84.1125C105.027 84.9717 105.3 85.9797 105.3 87.1364C105.3 88.4087 105.019 89.4993 104.457 90.4082C103.912 91.3005 103.242 92.0358 102.449 92.6141C101.656 93.1759 100.681 93.7708 99.5244 94.3987L99.2022 94.5722V94.6218H105.523V98.8602H91.5681V95.415ZM114.1 99.1577C112.514 99.1577 111.183 98.9263 110.109 98.4637C109.035 98.001 108.234 97.34 107.705 96.4808C107.176 95.605 106.912 94.5474 106.912 93.3081V92.9363H111.621V93.1346C111.621 93.5312 111.712 93.8947 111.894 94.2252C112.076 94.5557 112.34 94.8201 112.687 95.0184C113.051 95.2167 113.464 95.3158 113.926 95.3158C114.406 95.3158 114.81 95.2415 115.141 95.0927C115.488 94.9275 115.752 94.6962 115.934 94.3987C116.116 94.1013 116.207 93.746 116.207 93.3329C116.207 92.9529 116.124 92.6141 115.959 92.3167C115.81 92.0193 115.579 91.7962 115.265 91.6475C114.951 91.4822 114.571 91.3996 114.125 91.3996H112.935V88.3757H114.075C114.505 88.3757 114.868 88.3179 115.166 88.2022C115.48 88.0865 115.719 87.9048 115.884 87.6569C116.066 87.409 116.157 87.1033 116.157 86.7398C116.157 86.2276 115.975 85.831 115.612 85.5501C115.265 85.2692 114.777 85.1287 114.149 85.1287C113.687 85.1287 113.29 85.2031 112.96 85.3518C112.646 85.5005 112.398 85.7071 112.216 85.9714C112.051 86.2358 111.968 86.5498 111.968 86.9133V87.0372H107.284C107.3 85.831 107.589 84.8148 108.151 83.9886C108.73 83.1458 109.531 82.5097 110.555 82.08C111.596 81.6504 112.836 81.4356 114.273 81.4356C115.645 81.4356 116.81 81.6256 117.768 82.0057C118.743 82.3692 119.47 82.898 119.949 83.592C120.445 84.286 120.693 85.1039 120.693 86.0458C120.693 86.7563 120.561 87.3677 120.296 87.88C120.049 88.3922 119.718 88.7971 119.305 89.0945C118.908 89.3919 118.47 89.6067 117.991 89.7389V89.7885C119.065 90.0198 119.892 90.4908 120.47 91.2013C121.065 91.8953 121.362 92.7794 121.362 93.8534C121.362 94.8614 121.09 95.7702 120.544 96.5799C120.015 97.3731 119.206 98.001 118.115 98.4637C117.041 98.9263 115.703 99.1577 114.1 99.1577ZM129.859 95.291H122.373V90.78L130.032 81.733H135.064V91.2261H137.319V95.291H135.064V98.8602H129.859V95.291ZM129.859 91.2261V86.368H129.809L125.744 91.2261H129.859Z" fill="#24262B"/>
<g opacity="0.8">
<path d="M81.2346 123.212C80.1656 123.212 79.271 123.032 78.5508 122.672C77.8419 122.3 77.313 121.771 76.9641 121.085C76.6153 120.387 76.4409 119.566 76.4409 118.62V111.295H78.2976V118.452C78.2976 119.138 78.3989 119.718 78.6014 120.19C78.804 120.663 79.1191 121.023 79.5467 121.271C79.9856 121.518 80.5482 121.642 81.2346 121.642C81.9098 121.642 82.4612 121.529 82.8888 121.304C83.3277 121.068 83.6484 120.719 83.8509 120.258C84.0535 119.796 84.1548 119.206 84.1548 118.485V111.295H86.0115V118.604C86.0115 119.571 85.8315 120.404 85.4714 121.102C85.1225 121.788 84.588 122.311 83.8678 122.672C83.1589 123.032 82.2812 123.212 81.2346 123.212ZM88.29 114.249H89.9273V115.565H89.961C90.2086 115.059 90.5631 114.671 91.0244 114.401C91.4971 114.131 92.0597 113.996 92.7124 113.996C93.3988 113.996 93.9671 114.125 94.4172 114.384C94.8673 114.643 95.2049 115.02 95.43 115.515C95.655 116.01 95.7676 116.612 95.7676 117.321V122.958H94.0796V117.793C94.0796 116.972 93.9165 116.359 93.5901 115.954C93.275 115.548 92.7799 115.346 92.1047 115.346C91.3958 115.346 90.8613 115.56 90.5012 115.987C90.1523 116.415 89.9779 117.051 89.9779 117.895V122.958H88.29V114.249ZM97.933 110.907H99.621V115.565H99.6547C99.9135 115.048 100.274 114.659 100.735 114.401C101.196 114.131 101.753 113.996 102.406 113.996C103.07 113.996 103.627 114.125 104.077 114.384C104.527 114.643 104.859 115.02 105.073 115.515C105.298 116.01 105.411 116.612 105.411 117.321V122.958H103.723V117.793C103.723 116.972 103.559 116.359 103.233 115.954C102.918 115.548 102.429 115.346 101.765 115.346C101.056 115.346 100.521 115.56 100.161 115.987C99.801 116.415 99.621 117.051 99.621 117.895V122.958H97.933V110.907ZM111.29 123.212C110.434 123.212 109.692 123.02 109.061 122.638C108.431 122.244 107.953 121.704 107.627 121.017C107.312 120.32 107.154 119.515 107.154 118.604C107.154 117.715 107.323 116.921 107.66 116.224C107.998 115.526 108.476 114.98 109.095 114.586C109.714 114.192 110.44 113.996 111.273 113.996C112.128 113.996 112.854 114.192 113.45 114.586C114.047 114.98 114.497 115.532 114.8 116.24C115.116 116.949 115.273 117.777 115.273 118.722V119.009H108.386V117.912H113.602C113.58 117.371 113.473 116.904 113.281 116.511C113.09 116.117 112.82 115.813 112.471 115.599C112.134 115.374 111.728 115.261 111.256 115.261C110.794 115.261 110.389 115.368 110.04 115.582C109.692 115.785 109.41 116.089 109.196 116.494C108.983 116.899 108.859 117.377 108.825 117.928V118.975C108.848 119.571 108.949 120.089 109.129 120.528C109.32 120.967 109.607 121.31 109.99 121.558C110.372 121.805 110.834 121.929 111.374 121.929C111.959 121.929 112.432 121.811 112.792 121.574C113.152 121.327 113.411 120.984 113.568 120.545H115.087C114.84 121.4 114.395 122.058 113.754 122.52C113.124 122.981 112.302 123.212 111.29 123.212ZM119.554 123.212C118.958 123.212 118.435 123.105 117.985 122.891C117.534 122.677 117.186 122.368 116.938 121.963C116.691 121.558 116.567 121.068 116.567 120.494C116.567 119.841 116.736 119.313 117.073 118.907C117.422 118.502 117.917 118.21 118.558 118.03C119.2 117.838 119.988 117.743 120.922 117.743H122.356V117.203C122.356 116.775 122.3 116.409 122.188 116.105C122.075 115.802 121.878 115.565 121.597 115.397C121.327 115.228 120.955 115.143 120.483 115.143C119.909 115.143 119.464 115.256 119.149 115.481C118.845 115.695 118.654 116.01 118.575 116.426H116.921C116.977 115.909 117.152 115.47 117.444 115.11C117.737 114.738 118.142 114.463 118.66 114.282C119.189 114.091 119.813 113.996 120.533 113.996C121.31 113.996 121.957 114.114 122.475 114.35C122.992 114.575 123.38 114.935 123.639 115.43C123.909 115.914 124.044 116.533 124.044 117.287V122.958H122.542L122.424 121.693H122.39C122.255 121.974 122.058 122.227 121.799 122.452C121.541 122.677 121.22 122.857 120.837 122.992C120.455 123.139 120.027 123.212 119.554 123.212ZM120.044 121.963C120.46 121.963 120.843 121.878 121.192 121.709C121.541 121.541 121.822 121.282 122.036 120.933C122.249 120.584 122.356 120.157 122.356 119.65V118.756H121.192C120.562 118.756 120.033 118.806 119.605 118.907C119.177 119.009 118.845 119.178 118.609 119.414C118.384 119.65 118.272 119.976 118.272 120.393C118.272 120.742 118.345 121.034 118.491 121.271C118.649 121.496 118.857 121.67 119.116 121.794C119.386 121.906 119.695 121.963 120.044 121.963ZM126.22 110.907H127.925V122.958H126.22V110.907ZM133.451 123.077C132.922 123.077 132.472 122.992 132.101 122.823C131.729 122.643 131.443 122.356 131.24 121.963C131.037 121.569 130.936 121.051 130.936 120.41V115.515H129.333V114.249H130.936V111.616H132.641V114.249H134.582V115.515H132.641V120.207C132.641 120.578 132.68 120.877 132.759 121.102C132.849 121.316 132.973 121.467 133.13 121.558C133.299 121.648 133.519 121.693 133.789 121.693C133.935 121.693 134.076 121.687 134.211 121.676C134.357 121.653 134.498 121.631 134.633 121.608V122.925C134.475 122.97 134.295 123.004 134.093 123.026C133.901 123.06 133.687 123.077 133.451 123.077ZM136.241 110.907H137.929V115.565H137.963C138.222 115.048 138.582 114.659 139.043 114.401C139.505 114.131 140.062 113.996 140.714 113.996C141.378 113.996 141.935 114.125 142.386 114.384C142.836 114.643 143.168 115.02 143.381 115.515C143.606 116.01 143.719 116.612 143.719 117.321V122.958H142.031V117.793C142.031 116.972 141.868 116.359 141.542 115.954C141.226 115.548 140.737 115.346 140.073 115.346C139.364 115.346 138.83 115.56 138.47 115.987C138.109 116.415 137.929 117.051 137.929 117.895V122.958H136.241V110.907ZM145.749 124.883C146.211 124.871 146.588 124.798 146.88 124.663C147.184 124.528 147.437 124.32 147.64 124.039C147.842 123.769 148.028 123.386 148.197 122.891L144.905 114.249H146.728L149.092 120.967H149.125L151.353 114.249H153.109L149.936 123.077C149.632 123.909 149.277 124.562 148.872 125.035C148.478 125.507 148.028 125.834 147.522 126.014C147.015 126.205 146.425 126.306 145.749 126.318V124.883Z" fill="#191B1E"/>
</g>
</svg>
