<svg width="20" height="20" viewBox="0 0 20 20" fill="none" xmlns="http://www.w3.org/2000/svg">
<path d="M10 0C8.02219 0 6.08879 0.58649 4.4443 1.6853C2.79981 2.78412 1.51809 4.3459 0.761209 6.17317C0.00433284 8.00043 -0.193701 10.0111 0.192152 11.9509C0.578004 13.8907 1.53041 15.6725 2.92894 17.0711C4.32746 18.4696 6.10929 19.422 8.0491 19.8079C9.98891 20.1937 11.9996 19.9957 13.8268 19.2388C15.6541 18.4819 17.2159 17.2002 18.3147 15.5557C19.4135 13.9112 20 11.9778 20 10C20 8.68678 19.7413 7.38642 19.2388 6.17317C18.7363 4.95991 17.9997 3.85752 17.0711 2.92893C16.1425 2.00035 15.0401 1.26375 13.8268 0.761205C12.6136 0.258658 11.3132 0 10 0ZM14.71 10.71L11.71 13.71C11.617 13.8037 11.5064 13.8781 11.3846 13.9289C11.2627 13.9797 11.132 14.0058 11 14.0058C10.868 14.0058 10.7373 13.9797 10.6154 13.9289C10.4936 13.8781 10.383 13.8037 10.29 13.71C10.1963 13.617 10.1219 13.5064 10.0711 13.3846C10.0203 13.2627 9.99421 13.132 9.99421 13C9.99421 12.868 10.0203 12.7373 10.0711 12.6154C10.1219 12.4936 10.1963 12.383 10.29 12.29L11.59 11H6C5.73479 11 5.48043 10.8946 5.2929 10.7071C5.10536 10.5196 5 10.2652 5 10C5 9.73478 5.10536 9.48043 5.2929 9.29289C5.48043 9.10536 5.73479 9 6 9H11.59L10.29 7.71C10.1017 7.5217 9.99591 7.2663 9.99591 7C9.99591 6.7337 10.1017 6.4783 10.29 6.29C10.4783 6.1017 10.7337 5.99591 11 5.99591C11.2663 5.99591 11.5217 6.1017 11.71 6.29L14.71 9.29C14.801 9.3851 14.8724 9.49725 14.92 9.62C15.02 9.86346 15.02 10.1365 14.92 10.38C14.8724 10.5028 14.801 10.6149 14.71 10.71Z" fill="#019CFE"/>
</svg>
