<svg width="14" height="20" viewBox="0 0 14 20" fill="none" xmlns="http://www.w3.org/2000/svg">
<path d="M12.7 8.39999L7.85 0.479992C7.76032 0.335282 7.63517 0.215864 7.48642 0.133052C7.33768 0.0502397 7.17025 0.0067749 7 0.0067749C6.82975 0.0067749 6.66232 0.0502397 6.51358 0.133052C6.36483 0.215864 6.23968 0.335282 6.15 0.479992L1.3 8.39999C0.451497 9.78443 0.00164066 11.3762 0 13C2.76642e-08 14.8565 0.737498 16.637 2.05025 17.9497C3.36301 19.2625 5.14348 20 7 20C8.85652 20 10.637 19.2625 11.9497 17.9497C13.2625 16.637 14 14.8565 14 13C13.9984 11.3762 13.5485 9.78443 12.7 8.39999Z" fill="#00ACCE"/>
</svg>
