<svg width="11" height="15" viewBox="0 0 11 15" fill="none" xmlns="http://www.w3.org/2000/svg">
<path d="M9.31667 6.55093L5.79532 0.800611C5.73021 0.695544 5.63935 0.608841 5.53135 0.548715C5.42335 0.488589 5.30179 0.457031 5.17818 0.457031C5.05457 0.457031 4.93301 0.488589 4.82501 0.548715C4.71701 0.608841 4.62615 0.695544 4.56104 0.800611L1.03969 6.55093C0.423635 7.5561 0.0970164 8.71183 0.0958252 9.89076C0.0958252 11.2387 0.631286 12.5314 1.58441 13.4845C2.53754 14.4377 3.83025 14.9731 5.17818 14.9731C6.5261 14.9731 7.81882 14.4377 8.77194 13.4845C9.72507 12.5314 10.2605 11.2387 10.2605 9.89076C10.2593 8.71183 9.93272 7.5561 9.31667 6.55093V6.55093Z" fill="#00ACCE"/>
</svg>
