<svg width="16" height="16" viewBox="0 0 16 16" fill="none" xmlns="http://www.w3.org/2000/svg">
<path d="M15.1111 0H9.77778C9.24444 0 8.88889 0.355556 8.88889 0.888889C8.88889 1.42222 9.24444 1.77778 9.77778 1.77778H14.2222V6.22222C14.2222 6.75556 14.5778 7.11111 15.1111 7.11111C15.6444 7.11111 16 6.75556 16 6.22222V0.888889C16 0.355556 15.6444 0 15.1111 0Z" fill="white"/>
<path d="M6.22222 14.2222H1.77778V9.77778C1.77778 9.24444 1.42222 8.88889 0.888889 8.88889C0.355556 8.88889 0 9.24444 0 9.77778V15.1111C0 15.6444 0.355556 16 0.888889 16H6.22222C6.75556 16 7.11111 15.6444 7.11111 15.1111C7.11111 14.5778 6.75556 14.2222 6.22222 14.2222Z" fill="white"/>
</svg>
