<svg width="14" height="20" viewBox="0 0 14 20" fill="none" xmlns="http://www.w3.org/2000/svg">
<path d="M12.7 8.39999L7.85 0.479992C7.76032 0.335282 7.63517 0.215864 7.48642 0.133052C7.33768 0.0502397 7.17025 0.0067749 7 0.0067749C6.82975 0.0067749 6.66232 0.0502397 6.51358 0.133052C6.36483 0.215864 6.23968 0.335282 6.15 0.479992L1.3 8.39999C0.451497 9.78443 0.00164066 11.3762 0 13C2.76642e-08 14.8565 0.737498 16.637 2.05025 17.9497C3.36301 19.2625 5.14348 20 7 20C8.85652 20 10.637 19.2625 11.9497 17.9497C13.2625 16.637 14 14.8565 14 13C13.9984 11.3762 13.5485 9.78443 12.7 8.39999ZM4.25 7.99999C4.49723 7.99999 4.7389 8.0733 4.94446 8.21066C5.15002 8.34801 5.31024 8.54323 5.40485 8.77164C5.49946 9.00005 5.52421 9.25138 5.47598 9.49386C5.42775 9.73633 5.3087 9.95906 5.13388 10.1339C4.95907 10.3087 4.73634 10.4277 4.49386 10.476C4.25139 10.5242 4.00005 10.4995 3.77165 10.4048C3.54324 10.3102 3.34801 10.15 3.21066 9.94446C3.07331 9.73889 3 9.49722 3 9.24999C3 8.91847 3.1317 8.60053 3.36612 8.36611C3.60054 8.13169 3.91848 7.99999 4.25 7.99999ZM9.75 16C9.50277 16 9.2611 15.9267 9.05554 15.7893C8.84998 15.652 8.68976 15.4568 8.59515 15.2283C8.50054 14.9999 8.47579 14.7486 8.52402 14.5061C8.57225 14.2637 8.6913 14.0409 8.86612 13.8661C9.04093 13.6913 9.26366 13.5722 9.50614 13.524C9.74861 13.4758 9.99995 13.5005 10.2284 13.5951C10.4568 13.6898 10.652 13.85 10.7893 14.0555C10.9267 14.2611 11 14.5028 11 14.75C11 15.0815 10.8683 15.3995 10.6339 15.6339C10.3995 15.8683 10.0815 16 9.75 16ZM10.75 9.70999L4.75 15.71C4.65704 15.8037 4.54644 15.8781 4.42458 15.9289C4.30272 15.9797 4.17201 16.0058 4.04 16.0058C3.90799 16.0058 3.77728 15.9797 3.65542 15.9289C3.53356 15.8781 3.42296 15.8037 3.33 15.71C3.23627 15.617 3.16188 15.5064 3.11111 15.3846C3.06034 15.2627 3.0342 15.132 3.0342 15C3.0342 14.868 3.06034 14.7373 3.11111 14.6154C3.16188 14.4936 3.23627 14.383 3.33 14.29L9.33 8.28999C9.5183 8.10169 9.7737 7.9959 10.04 7.9959C10.3063 7.9959 10.5617 8.10169 10.75 8.28999C10.9383 8.4783 11.0441 8.73369 11.0441 8.99999C11.0441 9.26629 10.9383 9.52169 10.75 9.70999Z" fill="#14B866"/>
</svg>
