<svg width="28" height="20" viewBox="0 0 28 20" fill="none" xmlns="http://www.w3.org/2000/svg">
<path d="M1.05301 9.05362L9.05301 1.05362C9.30408 0.80255 9.64461 0.661499 9.99967 0.661499C10.3547 0.661499 10.6953 0.80255 10.9463 1.05362C11.1974 1.30469 11.3385 1.64522 11.3385 2.00029C11.3385 2.35536 11.1974 2.69588 10.9463 2.94695L5.21301 8.66695H25.9997C26.3533 8.66695 26.6924 8.80743 26.9425 9.05748C27.1925 9.30753 27.333 9.64667 27.333 10.0003C27.333 10.3539 27.1925 10.693 26.9425 10.9431C26.6924 11.1931 26.3533 11.3336 25.9997 11.3336H5.21301L10.9463 17.0536C11.0713 17.1776 11.1705 17.325 11.2382 17.4875C11.3059 17.65 11.3407 17.8243 11.3407 18.0003C11.3407 18.1763 11.3059 18.3506 11.2382 18.5131C11.1705 18.6755 11.0713 18.823 10.9463 18.947C10.8224 19.0719 10.6749 19.1711 10.5124 19.2388C10.35 19.3065 10.1757 19.3414 9.99967 19.3414C9.82366 19.3414 9.64938 19.3065 9.4869 19.2388C9.32443 19.1711 9.17696 19.0719 9.05301 18.947L1.05301 10.947C0.928038 10.823 0.828842 10.6755 0.76115 10.5131C0.693459 10.3506 0.658609 10.1763 0.658609 10.0003C0.658609 9.82427 0.693459 9.65 0.76115 9.48752C0.828842 9.32504 0.928038 9.17757 1.05301 9.05362Z" fill="white"/>
</svg>
