<svg width="20" height="18" viewBox="0 0 20 18" fill="none" xmlns="http://www.w3.org/2000/svg">
<path d="M0.000317575 1.91019V10.6202C-0.00593166 11.0497 0.0801139 11.4755 0.252635 11.8688C0.425157 12.2622 0.680132 12.6139 1.00032 12.9002L5.81032 17.0002C6.01262 17.1694 6.24745 17.2953 6.50032 17.3702V3.64019L2.37032 0.690186C2.1461 0.530542 1.88227 0.43567 1.60773 0.415961C1.33319 0.396251 1.05851 0.452462 0.813786 0.57844C0.569058 0.704418 0.363713 0.895304 0.220232 1.1302C0.0767524 1.36509 0.000670597 1.63494 0.000317575 1.91019ZM19.1203 5.12019L15.1203 1.12019C14.9513 0.954688 14.7551 0.819396 14.5403 0.720186V13.5002L17.4803 16.4402C17.6918 16.6365 17.9555 16.7677 18.2396 16.8179C18.5238 16.8682 18.8164 16.8354 19.0824 16.7235C19.3484 16.6116 19.5765 16.4254 19.7393 16.1871C19.9021 15.9488 19.9928 15.6687 20.0003 15.3802V7.24019C19.9996 6.4448 19.6831 5.68226 19.1203 5.12019ZM7.50032 3.71019V17.4002C7.77725 17.3569 8.04061 17.2508 8.27032 17.0902L13.5003 13.3602V0.520186C13.2099 0.541209 12.9271 0.622973 12.6703 0.760186L7.50032 3.71019Z" fill="white"/>
</svg>
