<svg width="24" height="24" viewBox="0 0 24 24" fill="none" xmlns="http://www.w3.org/2000/svg">
<rect width="24" height="24" rx="12" fill="white"/>
<path d="M15 18H9.00002C8.73002 18 8.48002 18.11 8.29002 18.29C8.10002 18.48 8.00002 18.73 8.00002 19C8.00002 19.27 8.11002 19.52 8.29002 19.71C8.48002 19.9 8.73002 20 9.00002 20H15C15.27 20 15.52 19.89 15.71 19.71C15.9 19.53 16 19.27 16 19C16 18.73 15.89 18.48 15.71 18.29C15.53 18.1 15.27 18 15 18ZM18 14H15.83C16.86 13.03 17.61 11.76 17.9 10.31C18.46 7.45001 17.2 4.68001 14.95 3.16001C14.21 2.66001 13.29 3.37001 13.46 4.24001C13.64 5.17001 13.6 6.17001 13.29 7.16001C12.56 9.52001 10.35 11.23 7.88002 11.35C7.29002 11.38 6.73002 11.32 6.20002 11.2C5.32002 10.99 4.69002 12.02 5.18002 12.78C5.47002 13.22 5.81002 13.63 6.19002 13.99H6.01002C5.46002 13.99 5.01002 14.44 5.01002 14.99C5.01002 15.54 5.46002 15.99 6.01002 15.99H18.01C18.56 15.99 19.01 15.54 19.01 14.99C19.01 14.44 18.56 13.99 18.01 13.99L18 14Z" fill="#FAB913"/>
</svg>
