<svg width="20" height="19" viewBox="0 0 20 19" fill="none" xmlns="http://www.w3.org/2000/svg">
<path d="M17.91 8.15C17.52 6.35 15.92 5 14 5C12.5 5 11.21 5.83 10.53 7.05C10.36 7.02 10.18 7 10 7C8.34 7 7 8.34 7 10C5.9 10 5 10.9 5 12C5 13.1 5.9 14 7 14H17C18.66 14 20 12.66 20 11C20 9.66 19.12 8.54 17.91 8.15ZM9.53 5.02C10.41 4.03 11.6 3.36 12.89 3.11C12.48 1.33 10.9 0 9 0C7.5 0 6.21 0.83 5.53 2.05C5.36 2.02 5.18 2 5 2C3.34 2 2 3.34 2 5C0.9 5 0 5.9 0 7C0 8.1 0.9 9 2 9H4.36C4.63 8.76 4.94 8.56 5.26 8.4C5.88 6.57 7.54 5.21 9.53 5.02ZM7.2 15.4L5.7 17.4C5.37 17.84 5.46 18.47 5.9 18.8C6.08 18.93 6.29 19 6.5 19C6.8 19 7.1 18.86 7.3 18.6L8.8 16.6C9.13 16.16 9.04 15.53 8.6 15.2C8.16 14.87 7.53 14.96 7.2 15.4ZM11.2 15.4L9.7 17.4C9.37 17.84 9.46 18.47 9.9 18.8C10.08 18.93 10.29 19 10.5 19C10.8 19 11.1 18.86 11.3 18.6L12.8 16.6C13.13 16.16 13.04 15.53 12.6 15.2C12.16 14.87 11.53 14.96 11.2 15.4ZM15.2 15.4L13.7 17.4C13.37 17.84 13.46 18.47 13.9 18.8C14.08 18.93 14.29 19 14.5 19C14.8 19 15.1 18.86 15.3 18.6L16.8 16.6C17.13 16.16 17.04 15.53 16.6 15.2C16.16 14.87 15.53 14.96 15.2 15.4Z" fill="#4285F4"/>
</svg>
