<svg width="21" height="20" viewBox="0 0 21 20" fill="none" xmlns="http://www.w3.org/2000/svg">
<path d="M10.5 2C11.8471 2.00388 13.1713 2.34785 14.35 3H13.5C13.3014 2.99884 13.1069 3.05687 12.9414 3.16667C12.7759 3.27647 12.6468 3.43307 12.5706 3.61652C12.4945 3.79996 12.4747 4.00193 12.5137 4.19668C12.5528 4.39143 12.649 4.57013 12.79 4.71C12.8834 4.80268 12.9943 4.87601 13.1161 4.92577C13.2379 4.97554 13.3684 5.00076 13.5 5H16.5C16.7652 5 17.0196 4.89464 17.2071 4.70711C17.3946 4.51957 17.5 4.26522 17.5 4V1C17.5 0.734784 17.3946 0.48043 17.2071 0.292893C17.0196 0.105357 16.7652 0 16.5 0C16.2348 0 15.9804 0.105357 15.7929 0.292893C15.6054 0.48043 15.5 0.734784 15.5 1V1.36C13.9818 0.475235 12.2572 0.00615437 10.5 0C8.74637 0.00179871 7.02405 0.464714 5.50581 1.34231C3.98758 2.2199 2.72681 3.48131 1.85 5C0.966085 6.51809 0.500274 8.24332 0.5 10C0.5 10.2652 0.605357 10.5196 0.792893 10.7071C0.98043 10.8946 1.23478 11 1.5 11C1.76522 11 2.01957 10.8946 2.20711 10.7071C2.39464 10.5196 2.5 10.2652 2.5 10C2.5 7.87827 3.34285 5.84344 4.84315 4.34315C6.34344 2.84285 8.37827 2 10.5 2ZM20.21 9.29C20.0701 9.14897 19.8914 9.05279 19.6967 9.01372C19.5019 8.97465 19.3 8.99446 19.1165 9.07063C18.9331 9.1468 18.7765 9.27587 18.6667 9.44139C18.5569 9.60691 18.4988 9.80138 18.5 10C18.4969 11.3872 18.1331 12.7497 17.4443 13.9539C16.7556 15.158 15.7655 16.1624 14.5714 16.8683C13.3773 17.5743 12.0201 17.9577 10.6331 17.9808C9.24612 18.0038 7.87694 17.6659 6.66 17H7.5C7.76522 17 8.01957 16.8946 8.20711 16.7071C8.39464 16.5196 8.5 16.2652 8.5 16C8.5 15.7348 8.39464 15.4804 8.20711 15.2929C8.01957 15.1054 7.76522 15 7.5 15H4.5C4.23478 15 3.98043 15.1054 3.79289 15.2929C3.60536 15.4804 3.5 15.7348 3.5 16V19C3.49884 19.1986 3.55687 19.3931 3.66667 19.5586C3.77647 19.7241 3.93307 19.8532 4.11652 19.9294C4.29996 20.0055 4.50193 20.0254 4.69668 19.9863C4.89143 19.9472 5.07013 19.851 5.21 19.71C5.30268 19.6166 5.37601 19.5057 5.42577 19.3839C5.47554 19.2621 5.50076 19.1316 5.5 19V18.64C7.01823 19.5248 8.74279 19.9938 10.5 20C12.2553 20 13.9797 19.5379 15.4999 18.6602C17.02 17.7825 18.2823 16.5202 19.16 15C20.0404 13.4809 20.5028 11.7558 20.5 10C20.5008 9.86839 20.4755 9.73793 20.4258 9.61609C20.376 9.49426 20.3027 9.38344 20.21 9.29Z" fill="#005B97"/>
</svg>
