<svg width="28" height="20" viewBox="0 0 28 20" fill="none" xmlns="http://www.w3.org/2000/svg">
<path d="M26.947 9.05362L18.947 1.05362C18.6959 0.80255 18.3554 0.661499 18.0003 0.661499C17.6453 0.661499 17.3047 0.80255 17.0537 1.05362C16.8026 1.30469 16.6615 1.64522 16.6615 2.00029C16.6615 2.35536 16.8026 2.69588 17.0537 2.94695L22.787 8.66695H2.00033C1.6467 8.66695 1.30756 8.80743 1.05752 9.05748C0.807468 9.30753 0.666992 9.64667 0.666992 10.0003C0.666992 10.3539 0.807468 10.693 1.05752 10.9431C1.30756 11.1931 1.6467 11.3336 2.00033 11.3336H22.787L17.0537 17.0536C16.9287 17.1776 16.8295 17.325 16.7618 17.4875C16.6941 17.65 16.6593 17.8243 16.6593 18.0003C16.6593 18.1763 16.6941 18.3506 16.7618 18.5131C16.8295 18.6755 16.9287 18.823 17.0537 18.947C17.1776 19.0719 17.3251 19.1711 17.4876 19.2388C17.65 19.3065 17.8243 19.3414 18.0003 19.3414C18.1763 19.3414 18.3506 19.3065 18.5131 19.2388C18.6756 19.1711 18.823 19.0719 18.947 18.947L26.947 10.947C27.072 10.823 27.1712 10.6755 27.2388 10.5131C27.3065 10.3506 27.3414 10.1763 27.3414 10.0003C27.3414 9.82427 27.3065 9.65 27.2388 9.48752C27.1712 9.32504 27.072 9.17757 26.947 9.05362Z" fill="white"/>
</svg>
