<svg width="37" height="36" viewBox="0 0 37 36" fill="none" xmlns="http://www.w3.org/2000/svg">
<g clip-path="url(#clip0_655_10130)">
<path d="M18.5 7.875C24.0919 7.875 28.625 12.4081 28.625 18C28.625 23.5919 24.0919 28.125 18.5 28.125C12.9081 28.125 8.375 23.5919 8.375 18C8.375 12.4081 12.9081 7.875 18.5 7.875Z" fill="url(#paint0_radial_655_10130)"/>
<path d="M18.5 29.8125C19.432 29.8125 20.1875 30.568 20.1875 31.5V33.1875C20.1875 34.1195 19.432 34.875 18.5 34.875C17.568 34.875 16.8125 34.1195 16.8125 33.1875V31.5C16.8125 30.568 17.568 29.8125 18.5 29.8125ZM29.2393 26.3528L30.4325 27.546C31.0915 28.205 31.0915 29.2733 30.4325 29.9325C29.7735 30.5915 28.705 30.5915 28.046 29.9325L26.8528 28.7393C26.1938 28.0801 26.1938 27.0118 26.8528 26.3528C27.5118 25.6937 28.5803 25.6937 29.2393 26.3528ZM7.76072 26.3528C8.41974 25.6937 9.48821 25.6937 10.1472 26.3528C10.7555 26.9611 10.8023 27.9183 10.2876 28.5803L10.1472 28.7393L8.95396 29.9325C8.29496 30.5915 7.22649 30.5915 6.56749 29.9325C5.95916 29.3242 5.91237 28.367 6.4271 27.705L6.56749 27.546L7.76072 26.3528ZM5 16.3125C5.93197 16.3125 6.6875 17.068 6.6875 18C6.6875 18.8654 6.03605 19.5787 5.1968 19.6761L5 19.6875H3.3125C2.38053 19.6875 1.625 18.932 1.625 18C1.625 17.1346 2.27645 16.4213 3.1157 16.3239L3.3125 16.3125H5ZM33.6875 16.3125C34.6195 16.3125 35.375 17.068 35.375 18C35.375 18.932 34.6195 19.6875 33.6875 19.6875H32C31.068 19.6875 30.3125 18.932 30.3125 18C30.3125 17.068 31.068 16.3125 32 16.3125H33.6875ZM6.56754 6.06749C7.17585 5.45918 8.13305 5.41238 8.79504 5.92711L8.95402 6.06749L10.1473 7.26073C10.8063 7.91974 10.8063 8.98821 10.1473 9.64721C9.53894 10.2555 8.58174 10.3023 7.91975 9.78759L7.76077 9.64721L6.56754 8.45396C5.90852 7.79496 5.90852 6.72649 6.56754 6.06749ZM30.4325 6.06752C31.0915 6.72652 31.0915 7.795 30.4325 8.454L29.2393 9.64725C28.5801 10.3062 27.5118 10.3062 26.8528 9.64725C26.1937 8.98823 26.1937 7.91977 26.8528 7.26075L28.046 6.06752C28.705 5.4085 29.7733 5.4085 30.4325 6.06752ZM18.5 1.125C19.432 1.125 20.1875 1.88053 20.1875 2.8125V4.5C20.1875 5.43197 19.432 6.1875 18.5 6.1875C17.568 6.1875 16.8125 5.43197 16.8125 4.5V2.8125C16.8125 1.88053 17.568 1.125 18.5 1.125Z" fill="url(#paint1_linear_655_10130)"/>
</g>
<defs>
<radialGradient id="paint0_radial_655_10130" cx="0" cy="0" r="1" gradientUnits="userSpaceOnUse" gradientTransform="translate(11.4688 10.4062) rotate(43.0203) scale(23.4644)">
<stop offset="0.193671" stop-color="#FFE475"/>
<stop offset="0.529275" stop-color="#FFB029"/>
<stop offset="0.780467" stop-color="#FF9100"/>
</radialGradient>
<linearGradient id="paint1_linear_655_10130" x1="1.41406" y1="0.914063" x2="35.5859" y2="35.0859" gradientUnits="userSpaceOnUse">
<stop offset="0.166667" stop-color="#FFE475"/>
<stop offset="0.798611" stop-color="#FFBF29"/>
</linearGradient>
<clipPath id="clip0_655_10130">
<rect width="36" height="36" fill="white" transform="translate(0.5)"/>
</clipPath>
</defs>
</svg>
