<svg width="199" height="91" viewBox="0 0 199 91" fill="none" xmlns="http://www.w3.org/2000/svg">
<path d="M1.76636 89.4935H197.611" stroke="#FF9100" stroke-width="1.68831" stroke-linecap="round"/>
<mask id="path-2-inside-1_1526_21432" fill="white">
<path d="M12.7404 89.9156C12.7404 66.072 22.2122 43.2049 39.0722 26.3449C55.9322 9.48488 78.7992 0.0130201 102.643 0.0130005C126.487 0.0129809 149.354 9.4848 166.214 26.3448C183.074 43.2048 192.546 66.0718 192.546 89.9154L102.643 89.9156L12.7404 89.9156Z"/>
</mask>
<path d="M12.7404 89.9156C12.7404 66.072 22.2122 43.2049 39.0722 26.3449C55.9322 9.48488 78.7992 0.0130201 102.643 0.0130005C126.487 0.0129809 149.354 9.4848 166.214 26.3448C183.074 43.2048 192.546 66.0718 192.546 89.9154L102.643 89.9156L12.7404 89.9156Z" fill="url(#paint0_linear_1526_21432)" stroke="#FF9100" stroke-width="0.844156" mask="url(#path-2-inside-1_1526_21432)"/>
<path d="M33.5352 32.2822L103.065 89.4935" stroke="#FF9100" stroke-width="1.68831" stroke-linecap="round"/>
<g clip-path="url(#clip0_1526_21432)">
<path d="M27.0911 22.1193C32.5982 22.1193 37.0627 26.5838 37.0627 32.0909C37.0627 37.5981 32.5982 42.0625 27.0911 42.0625C21.5839 42.0625 17.1195 37.5981 17.1195 32.0909C17.1195 26.5838 21.5839 22.1193 27.0911 22.1193Z" fill="url(#paint1_radial_1526_21432)"/>
<path d="M27.091 43.7244C28.0089 43.7244 28.7529 44.4684 28.7529 45.3863V47.0483C28.7529 47.9661 28.0089 48.7102 27.091 48.7102C26.1731 48.7102 25.4291 47.9661 25.4291 47.0483V45.3863C25.4291 44.4684 26.1731 43.7244 27.091 43.7244ZM37.6675 40.3171L38.8427 41.4923C39.4917 42.1412 39.4917 43.1934 38.8427 43.8426C38.1937 44.4915 37.1414 44.4915 36.4924 43.8426L35.3172 42.6674C34.6682 42.0183 34.6682 40.9661 35.3172 40.3171C35.9662 39.668 37.0185 39.668 37.6675 40.3171ZM16.5144 40.3171C17.1635 39.668 18.2157 39.668 18.8648 40.3171C19.4639 40.9162 19.5099 41.8589 19.003 42.5108L18.8648 42.6674L17.6896 43.8426C17.0406 44.4915 15.9883 44.4915 15.3393 43.8426C14.7402 43.2435 14.6941 42.3008 15.201 41.6488L15.3393 41.4923L16.5144 40.3171ZM13.7955 30.4289C14.7134 30.4289 15.4575 31.173 15.4575 32.0909C15.4575 32.9432 14.8159 33.6456 13.9894 33.7416L13.7955 33.7528H12.1336C11.2158 33.7528 10.4717 33.0088 10.4717 32.0909C10.4717 31.2386 11.1133 30.5361 11.9398 30.4401L12.1336 30.4289H13.7955ZM42.0484 30.4289C42.9663 30.4289 43.7103 31.173 43.7103 32.0909C43.7103 33.0088 42.9663 33.7528 42.0484 33.7528H40.3864C39.4686 33.7528 38.7245 33.0088 38.7245 32.0909C38.7245 31.173 39.4686 30.4289 40.3864 30.4289H42.0484ZM15.3393 20.3392C15.9384 19.7401 16.8811 19.694 17.5331 20.2009L17.6896 20.3392L18.8648 21.5143C19.5138 22.1633 19.5138 23.2156 18.8648 23.8646C18.2657 24.4637 17.323 24.5098 16.6711 24.0029L16.5145 23.8646L15.3393 22.6895C14.6903 22.0405 14.6903 20.9882 15.3393 20.3392ZM38.8427 20.3392C39.4917 20.9882 39.4917 22.0405 38.8427 22.6895L37.6675 23.8647C37.0184 24.5137 35.9662 24.5137 35.3172 23.8647C34.6681 23.2156 34.6681 22.1634 35.3172 21.5143L36.4924 20.3392C37.1414 19.6902 38.1935 19.6902 38.8427 20.3392ZM27.091 15.4716C28.0089 15.4716 28.7529 16.2156 28.7529 17.1335V18.7954C28.7529 19.7133 28.0089 20.4574 27.091 20.4574C26.1731 20.4574 25.4291 19.7133 25.4291 18.7954V17.1335C25.4291 16.2156 26.1731 15.4716 27.091 15.4716Z" fill="url(#paint2_linear_1526_21432)"/>
</g>
<defs>
<linearGradient id="paint0_linear_1526_21432" x1="102.643" y1="0.0130005" x2="102.643" y2="179.818" gradientUnits="userSpaceOnUse">
<stop stop-color="#FFE475"/>
<stop offset="0.38421" stop-color="#FFE475" stop-opacity="0"/>
</linearGradient>
<radialGradient id="paint1_radial_1526_21432" cx="0" cy="0" r="1" gradientUnits="userSpaceOnUse" gradientTransform="translate(20.1664 24.6122) rotate(43.0203) scale(23.1089)">
<stop offset="0.193671" stop-color="#FFE475"/>
<stop offset="0.529275" stop-color="#FFB029"/>
<stop offset="0.780467" stop-color="#FF9100"/>
</radialGradient>
<linearGradient id="paint2_linear_1526_21432" x1="10.2639" y1="15.2638" x2="43.9181" y2="48.9179" gradientUnits="userSpaceOnUse">
<stop offset="0.166667" stop-color="#FFE475"/>
<stop offset="0.798611" stop-color="#FFBF29"/>
</linearGradient>
<clipPath id="clip0_1526_21432">
<rect width="35.4545" height="35.4545" fill="white" transform="translate(9.36377 14.3636)"/>
</clipPath>
</defs>
</svg>
