<svg width="10" height="21" viewBox="0 0 10 21" fill="none" xmlns="http://www.w3.org/2000/svg">
<path d="M9.00004 12.5V4.5C9.00004 3.43913 8.57861 2.42172 7.82847 1.67157C7.07832 0.921427 6.06091 0.5 5.00004 0.5C3.93917 0.5 2.92176 0.921427 2.17161 1.67157C1.42147 2.42172 1.00004 3.43913 1.00004 4.5V12.5C0.346997 13.3634 -0.00434526 14.4174 4.05678e-05 15.5C4.05678e-05 16.8261 0.526825 18.0979 1.46451 19.0355C2.40219 19.9732 3.67396 20.5 5.00004 20.5C6.32612 20.5 7.59789 19.9732 8.53557 19.0355C9.47326 18.0979 10 16.8261 10 15.5C10.0044 14.4174 9.65308 13.3634 9.00004 12.5ZM5.00004 17.5C4.46961 17.5 3.9609 17.2893 3.58583 16.9142C3.21075 16.5391 3.00004 16.0304 3.00004 15.5C3.00215 15.151 3.09556 14.8086 3.27099 14.5068C3.44642 14.2051 3.69776 13.9545 4.00004 13.78V6.5C4.00004 6.23478 4.1054 5.98043 4.29293 5.79289C4.48047 5.60536 4.73482 5.5 5.00004 5.5C5.26526 5.5 5.51961 5.60536 5.70715 5.79289C5.89468 5.98043 6.00004 6.23478 6.00004 6.5V13.78C6.30232 13.9545 6.55366 14.2051 6.72909 14.5068C6.90452 14.8086 6.99793 15.151 7.00004 15.5C7.00004 16.0304 6.78933 16.5391 6.41425 16.9142C6.03918 17.2893 5.53047 17.5 5.00004 17.5Z" fill="#CB4400"/>
</svg>
