<svg width="24" height="24" viewBox="0 0 24 24" fill="none" xmlns="http://www.w3.org/2000/svg">
<path d="M11 9.00002C11 9.26523 11.1054 9.51959 11.2929 9.70712C11.4804 9.89466 11.7348 10 12 10C13.5558 10.0337 15.0923 9.65046 16.45 8.89002C17.5292 8.27305 18.7574 7.96514 20 8.00002C20.2652 8.00002 20.5196 7.89466 20.7071 7.70712C20.8946 7.51959 21 7.26523 21 7.00002C21 6.7348 20.8946 6.48045 20.7071 6.29291C20.5196 6.10537 20.2652 6.00002 20 6.00002C18.4442 5.96631 16.9077 6.34957 15.55 7.11002C14.4708 7.72698 13.2426 8.0349 12 8.00002C11.7348 8.00002 11.4804 8.10537 11.2929 8.29291C11.1054 8.48045 11 8.7348 11 9.00002ZM9 17V9.00002C8.99979 8.21635 9.30623 7.46371 9.85379 6.90307C10.4013 6.34243 11.1465 6.0183 11.93 6.00002L10.29 3.40002C10.1965 3.27957 10.0767 3.1821 9.93983 3.11504C9.8029 3.04798 9.65246 3.01312 9.5 3.01312C9.34754 3.01312 9.1971 3.04798 9.06017 3.11504C8.92325 3.1821 8.80347 3.27957 8.71 3.40002L4.2 10.54C3.41974 11.7839 3.004 13.2217 3 14.69C3.02895 16.3875 3.72911 18.0044 4.94727 19.187C6.16542 20.3695 7.80239 21.0214 9.5 21C10.7373 21.0014 11.9501 20.6548 13 20H12C11.2044 20 10.4413 19.6839 9.87868 19.1213C9.31607 18.5587 9 17.7957 9 17ZM20 10C18.4442 9.96631 16.9077 10.3496 15.55 11.11C14.4708 11.727 13.2426 12.0349 12 12C11.7348 12 11.4804 12.1054 11.2929 12.2929C11.1054 12.4804 11 12.7348 11 13C11 13.2652 11.1054 13.5196 11.2929 13.7071C11.4804 13.8947 11.7348 14 12 14C13.5558 14.0337 15.0923 13.6505 16.45 12.89C17.5292 12.2731 18.7574 11.9651 20 12C20.2652 12 20.5196 11.8947 20.7071 11.7071C20.8946 11.5196 21 11.2652 21 11C21 10.7348 20.8946 10.4804 20.7071 10.2929C20.5196 10.1054 20.2652 10 20 10ZM20 14C18.4442 13.9663 16.9077 14.3496 15.55 15.11C14.4708 15.727 13.2426 16.0349 12 16C11.7348 16 11.4804 16.1054 11.2929 16.2929C11.1054 16.4804 11 16.7348 11 17C11 17.2652 11.1054 17.5196 11.2929 17.7071C11.4804 17.8947 11.7348 18 12 18C13.5558 18.0337 15.0923 17.6505 16.45 16.89C17.5292 16.2731 18.7574 15.9651 20 16C20.2652 16 20.5196 15.8947 20.7071 15.7071C20.8946 15.5196 21 15.2652 21 15C21 14.7348 20.8946 14.4804 20.7071 14.2929C20.5196 14.1054 20.2652 14 20 14Z" fill="#004DCC"/>
</svg>
