<svg width="19" height="19" viewBox="0 0 19 19" fill="none" xmlns="http://www.w3.org/2000/svg">
<path d="M7.00397 7.13065e-06C8.30225 0.00139501 9.57457 0.363814 10.6787 1.04676C11.7829 1.7297 12.6753 2.70625 13.2564 3.86727C13.8374 5.02829 14.0841 6.32801 13.9689 7.62118C13.8537 8.91434 13.3811 10.15 12.604 11.19L18.714 17.29C18.8077 17.383 18.8821 17.4936 18.9329 17.6154C18.9836 17.7373 19.0098 17.868 19.0098 18C19.0098 18.132 18.9836 18.2627 18.9329 18.3846C18.8821 18.5064 18.8077 18.617 18.714 18.71C18.621 18.8037 18.5104 18.8781 18.3885 18.9289C18.2667 18.9797 18.136 19.0058 18.004 19.0058C17.872 19.0058 17.7412 18.9797 17.6194 18.9289C17.4975 18.8781 17.3869 18.8037 17.294 18.71L11.194 12.6C10.3063 13.2658 9.27308 13.7109 8.17953 13.8989C7.08597 14.0868 5.96341 14.0121 4.90441 13.6808C3.84542 13.3496 2.88033 12.7714 2.08874 11.9939C1.29715 11.2163 0.701744 10.2617 0.351614 9.20885C0.00148392 8.15595 -0.0933323 7.03491 0.0749817 5.93816C0.243296 4.84142 0.669918 3.8004 1.31967 2.90095C1.96942 2.0015 2.82368 1.2694 3.812 0.765018C4.80032 0.260635 5.89438 -0.00157648 7.00397 7.13065e-06ZM7.00397 12C7.99287 12 8.95957 11.7068 9.78182 11.1574C10.6041 10.6079 11.2449 9.82705 11.6234 8.91342C12.0018 7.99979 12.1008 6.99446 11.9079 6.02456C11.715 5.05465 11.2388 4.16374 10.5395 3.46447C9.84024 2.76521 8.94932 2.28901 7.97942 2.09608C7.00951 1.90315 6.00418 2.00217 5.09055 2.38061C4.17692 2.75905 3.39603 3.39991 2.84662 4.22216C2.29721 5.0444 2.00397 6.0111 2.00397 7.00001C2.00397 7.65662 2.1333 8.3068 2.38457 8.91342C2.63584 9.52005 3.00414 10.0712 3.46843 10.5355C3.93273 10.9998 4.48392 11.3681 5.09055 11.6194C5.69718 11.8707 6.34736 12 7.00397 12Z" fill="#001632"/>
</svg>
