<svg width="24" height="24" viewBox="0 0 24 24" fill="none" xmlns="http://www.w3.org/2000/svg">
<path d="M11.0596 4.03694C11.642 3.45446 12.4773 3.2923 13.2373 3.60725C13.9973 3.92225 14.4701 4.6295 14.4727 5.45198V18.6668C14.4727 19.4743 14.0125 20.1773 13.2725 20.4998C13.0076 20.6147 12.7327 20.6716 12.4629 20.6717C11.9729 20.6717 11.4923 20.4871 11.1123 20.1346L6.82715 16.1619H3.74707C2.53477 16.1617 1.5498 15.1765 1.5498 13.9666L1.5 10.8367C1.50012 9.50439 2.32547 8.54475 3.46289 8.54475H6.52734L11.0596 4.03694ZM18.2803 5.82405C18.5428 5.50436 19.0176 5.45953 19.335 5.72444C21.2574 7.31193 22.5 9.8093 22.5 12.0867C22.5 14.3617 21.2574 16.859 19.335 18.449C19.195 18.5665 19.0274 18.6219 18.8574 18.6219C18.6425 18.6219 18.4278 18.5293 18.2803 18.3494C18.0153 18.0295 18.0601 17.5573 18.3799 17.2948C19.9699 15.9773 21 13.9317 21 12.0867C21 10.2368 19.9723 8.1947 18.3799 6.87971C18.0599 6.61721 18.0153 6.14155 18.2803 5.82405ZM16.3252 8.27229C16.5677 7.93733 17.0371 7.86235 17.3721 8.10725C18.8146 9.15725 19.6104 10.5697 19.6104 12.0897C19.6103 13.6096 18.8145 15.0221 17.3721 16.0721C17.2371 16.1669 17.0821 16.2117 16.9297 16.2117C16.6973 16.2117 16.4697 16.1046 16.3223 15.9022C16.0798 15.5672 16.1527 15.0968 16.4902 14.8543C17.2277 14.3168 18.1104 13.4016 18.1104 12.0867C18.1103 10.7719 17.2302 9.85664 16.4902 9.31917C16.1553 9.07669 16.0803 8.60729 16.3252 8.27229Z" fill="#006AEC"/>
</svg>
