<svg width="20" height="20" viewBox="0 0 20 20" fill="none" xmlns="http://www.w3.org/2000/svg">
<path d="M14.44 11.6199C14.22 11.5099 13.09 10.9599 12.88 10.8799C12.67 10.7999 12.52 10.7699 12.37 10.9999C12.22 11.2299 11.78 11.7399 11.64 11.8899C11.5 12.0399 11.38 12.0599 11.15 11.8899C10.4752 11.6284 9.85217 11.2492 9.31 10.7699C8.80099 10.3304 8.35957 9.81817 8 9.24986C7.86 9.01986 8 8.89986 8.1 8.77986C8.2 8.65986 8.33 8.51986 8.44 8.38986C8.53315 8.27394 8.61049 8.14615 8.67 8.00986C8.70511 7.94906 8.72359 7.88008 8.72359 7.80986C8.72359 7.73965 8.70511 7.67067 8.67 7.60986C8.61 7.49986 8.16 6.37986 7.96 5.92986C7.76 5.47986 7.58 5.54986 7.45 5.54986L7 5.52986C6.88485 5.53382 6.77163 5.5606 6.66691 5.60867C6.5622 5.65674 6.46807 5.72512 6.39 5.80986C6.13175 6.05343 5.92719 6.34824 5.78943 6.67542C5.65168 7.00259 5.58375 7.35492 5.59 7.70986C5.66423 8.56585 5.99144 9.3804 6.53 10.0499C7.47915 11.5393 8.83156 12.7287 10.43 13.4799C12.76 14.3899 12.76 14.0799 13.18 14.0399C13.5011 13.9896 13.8075 13.8707 14.0785 13.6912C14.3494 13.5117 14.5785 13.2759 14.75 12.9999C14.9006 12.661 14.9459 12.2848 14.88 11.9199C14.83 11.7899 14.67 11.7399 14.44 11.6199ZM10.17 0.499864C8.94965 0.494601 7.74025 0.730088 6.61103 1.19284C5.48181 1.6556 4.45496 2.33654 3.58925 3.19667C2.72355 4.0568 2.03599 5.07924 1.56595 6.20545C1.09591 7.33165 0.852619 8.53951 0.85 9.75986C0.84492 11.4421 1.30522 13.093 2.18 14.5299L0.5 19.5299L5.66 17.8899C7.04697 18.6309 8.59754 19.0125 10.17 18.9999C11.411 19.0407 12.6475 18.8315 13.806 18.3847C14.9645 17.938 16.0213 17.2628 16.9136 16.3994C17.8059 15.5359 18.5154 14.5019 19 13.3587C19.4846 12.2155 19.7343 10.9865 19.7343 9.74486C19.7343 8.50321 19.4846 7.27424 19 6.13105C18.5154 4.98785 17.8059 3.95379 16.9136 3.09035C16.0213 2.22692 14.9645 1.55175 13.806 1.105C12.6475 0.65826 11.411 0.449066 10.17 0.489864V0.499864ZM10.17 17.4999C8.63833 17.499 7.14029 17.0506 5.86 16.2099L2.86 17.2099L3.86 14.3199C2.88749 12.9982 2.36202 11.4008 2.36 9.75986C2.34811 8.20676 2.7978 6.68512 3.65201 5.38797C4.50622 4.09082 5.72647 3.07661 7.15795 2.47401C8.58944 1.87141 10.1677 1.70756 11.6924 2.00326C13.2171 2.29896 14.6197 3.04088 15.7222 4.13489C16.8246 5.22891 17.5773 6.62573 17.8847 8.14815C18.1921 9.67058 18.0404 11.25 17.4488 12.6861C16.8572 14.1222 15.8524 15.3502 14.5618 16.2143C13.2713 17.0785 11.7532 17.5398 10.2 17.5399L10.17 17.4999Z" fill="white"/>
</svg>
