<svg width="14" height="13" viewBox="0 0 14 13" fill="none" xmlns="http://www.w3.org/2000/svg">
<path d="M1.00065 4H7.66732C8.76732 4 9.66732 3.1 9.66732 2C9.66732 0.9 8.76732 0 7.66732 0C7.30065 0 7.00065 0.3 7.00065 0.666667C7.00065 1.03333 7.30065 1.33333 7.66732 1.33333C8.03398 1.33333 8.33398 1.63333 8.33398 2C8.33398 2.36667 8.03398 2.66667 7.66732 2.66667H1.00065C0.633984 2.66667 0.333984 2.96667 0.333984 3.33333C0.333984 3.7 0.633984 4 1.00065 4ZM11.6673 8.66667H5.00065C4.63398 8.66667 4.33398 8.96667 4.33398 9.33333C4.33398 9.7 4.63398 10 5.00065 10H11.6673C12.034 10 12.334 10.3 12.334 10.6667C12.334 11.0333 12.034 11.3333 11.6673 11.3333C11.3007 11.3333 11.0007 11.6333 11.0007 12C11.0007 12.3667 11.3007 12.6667 11.6673 12.6667C12.7673 12.6667 13.6673 11.7667 13.6673 10.6667C13.6673 9.56667 12.7673 8.66667 11.6673 8.66667ZM1.00065 6H11.6673C12.7673 6 13.6673 5.1 13.6673 4C13.6673 2.9 12.7673 2 11.6673 2C11.3007 2 11.0007 2.3 11.0007 2.66667C11.0007 3.03333 11.3007 3.33333 11.6673 3.33333C12.034 3.33333 12.334 3.63333 12.334 4C12.334 4.36667 12.034 4.66667 11.6673 4.66667H1.00065C0.633984 4.66667 0.333984 4.96667 0.333984 5.33333C0.333984 5.7 0.633984 6 1.00065 6ZM11.6673 7.33333C11.6673 6.96667 11.3673 6.66667 11.0007 6.66667H1.00065C0.633984 6.66667 0.333984 6.96667 0.333984 7.33333C0.333984 7.7 0.633984 8 1.00065 8H11.0007C11.3673 8 11.6673 7.7 11.6673 7.33333Z" fill="#9600E0"/>
</svg>
