<svg width="40" height="40" viewBox="0 0 40 40" fill="none" xmlns="http://www.w3.org/2000/svg">
<rect x="0.981934" y="0.727661" width="38.9818" height="38.9818" rx="19.4909" fill="#600101"/>
<path d="M20.4728 23.8731C21.4421 23.8731 22.3716 23.4881 23.057 22.8027C23.7423 22.1174 24.1274 21.1878 24.1274 20.2186V11.6913C24.1274 10.722 23.7423 9.7925 23.057 9.10713C22.3716 8.42177 21.4421 8.03674 20.4728 8.03674C19.5036 8.03674 18.574 8.42177 17.8887 9.10713C17.2033 9.7925 16.8183 10.722 16.8183 11.6913V20.2186C16.8183 21.1878 17.2033 22.1174 17.8887 22.8027C18.574 23.4881 19.5036 23.8731 20.4728 23.8731ZM27.7819 17.7822C27.4588 17.7822 27.149 17.9105 26.9205 18.139C26.6921 18.3674 26.5637 18.6773 26.5637 19.0004V20.2186C26.5637 21.834 25.922 23.3832 24.7798 24.5255C23.6375 25.6678 22.0882 26.3095 20.4728 26.3095C18.8574 26.3095 17.3082 25.6678 16.1659 24.5255C15.0236 23.3832 14.3819 21.834 14.3819 20.2186V19.0004C14.3819 18.6773 14.2536 18.3674 14.0251 18.139C13.7967 17.9105 13.4868 17.7822 13.1637 17.7822C12.8407 17.7822 12.5308 17.9105 12.3024 18.139C12.0739 18.3674 11.9456 18.6773 11.9456 19.0004V20.2186C11.9456 22.4801 12.844 24.6491 14.4431 26.2483C16.0423 27.8474 18.2113 28.7458 20.4728 28.7458C22.7344 28.7458 24.9033 27.8474 26.5025 26.2483C28.1017 24.6491 29.0001 22.4801 29.0001 20.2186V19.0004C29.0001 18.6773 28.8718 18.3674 28.6433 18.139C28.4149 17.9105 28.105 17.7822 27.7819 17.7822ZM24.1274 29.964H16.8183C16.4952 29.964 16.1854 30.0924 15.9569 30.3208C15.7284 30.5493 15.6001 30.8591 15.6001 31.1822C15.6001 31.5053 15.7284 31.8151 15.9569 32.0436C16.1854 32.272 16.4952 32.4004 16.8183 32.4004H24.1274C24.4505 32.4004 24.7603 32.272 24.9888 32.0436C25.2172 31.8151 25.3456 31.5053 25.3456 31.1822C25.3456 30.8591 25.2172 30.5493 24.9888 30.3208C24.7603 30.0924 24.4505 29.964 24.1274 29.964Z" fill="white"/>
</svg>
