<svg width="25" height="24" viewBox="0 0 25 24" fill="none" xmlns="http://www.w3.org/2000/svg">
<path d="M10.4999 17.0004C10.3683 17.0012 10.2379 16.976 10.116 16.9262C9.9942 16.8764 9.88338 16.8031 9.78994 16.7104C9.69621 16.6175 9.62182 16.5069 9.57105 16.385C9.52028 16.2631 9.49414 16.1324 9.49414 16.0004C9.49414 15.8684 9.52028 15.7377 9.57105 15.6159C9.62182 15.494 9.69621 15.3834 9.78994 15.2904L13.0899 12.0004L9.78994 8.71043C9.60164 8.52213 9.49585 8.26673 9.49585 8.00043C9.49585 7.86857 9.52182 7.738 9.57228 7.61618C9.62274 7.49436 9.6967 7.38367 9.78994 7.29043C9.88318 7.19719 9.99387 7.12323 10.1157 7.07277C10.2375 7.02231 10.3681 6.99634 10.4999 6.99634C10.7662 6.99634 11.0216 7.10213 11.2099 7.29043L15.2099 11.2904C15.3037 11.3834 15.3781 11.494 15.4288 11.6159C15.4796 11.7377 15.5057 11.8684 15.5057 12.0004C15.5057 12.1324 15.4796 12.2631 15.4288 12.385C15.3781 12.5069 15.3037 12.6175 15.2099 12.7104L11.2099 16.7104C11.1165 16.8031 11.0057 16.8764 10.8838 16.9262C10.762 16.976 10.6315 17.0012 10.4999 17.0004Z" fill="#3174BF"/>
</svg>
