<svg width="100" height="40" viewBox="0 0 100 40" fill="none" xmlns="http://www.w3.org/2000/svg">
<path d="M0 0V2.72727H19.4318V0H0ZM22.2727 0V2.72727H50C50 2.72727 47.1591 0 43.4091 0H22.2727ZM55.4545 0V2.72727H72.2727L71.1364 0H55.4545ZM84.2045 0L83.1818 2.72727H99.7727V0H84.2045ZM0 5.34091V8.06818H19.4318V5.34091H0ZM22.2727 5.34091V8.06818H53.1818C53.1818 8.06818 52.8409 5.90909 52.1591 5.34091H22.2727ZM55.4545 5.34091V8.06818H74.0909L73.1818 5.34091H55.4545ZM82.2727 5.34091L81.3636 8.06818H99.8864V5.34091H82.2727ZM5.56818 10.6818V13.4091H13.9773V10.6818H5.56818ZM27.8409 10.6818V13.4091H36.25V10.6818H27.8409ZM44.4318 10.6818V13.4091H52.8409C52.8409 13.4091 53.4091 11.9318 53.4091 10.6818H44.4318ZM61.0227 10.6818V13.4091H76.0227L75 10.6818H61.0227ZM80.3409 10.6818L79.3182 13.4091H94.3182V10.6818H80.3409ZM5.56818 16.0227V18.75H13.9773V16.0227H5.56818ZM27.8409 16.0227V18.75H49.3182C49.3182 18.75 51.1364 17.3864 51.7045 16.0227H27.8409ZM61.0227 16.0227V18.75H69.4318V17.2727L70 18.75H85.4545L86.0227 17.2727V18.75H94.4318V16.0227H78.6364L77.8409 18.2955L77.0454 16.0227H61.0227ZM5.56818 21.25V23.9773H13.9773V21.25H5.56818ZM27.8409 21.25V23.9773H51.7045C51.1364 22.6136 49.3182 21.25 49.3182 21.25H27.8409ZM61.0227 21.25V23.9773H69.4318V21.25H61.0227ZM70.9091 21.25L71.9318 23.9773H83.5227L84.5454 21.25H70.9091ZM86.0227 21.25V23.9773H94.4318V21.25H86.0227ZM5.56818 26.5909V29.3182H13.9773V26.5909H5.56818ZM27.8409 26.5909V29.3182H36.25V26.5909H27.8409ZM44.4318 26.5909V29.3182H53.4091C53.4091 28.0682 52.8409 26.5909 52.8409 26.5909H44.4318ZM61.0227 26.5909V29.3182H69.4318V26.5909H61.0227ZM72.8409 26.5909L73.8636 29.3182H81.5909L82.6136 26.5909H72.8409ZM86.0227 26.5909V29.3182H94.4318V26.5909H86.0227ZM0.113636 31.9318V34.6591H19.5455V31.9318H0.113636ZM22.2727 31.9318V34.6591H52.2727C52.9545 33.9773 53.2955 31.9318 53.2955 31.9318H22.2727ZM55.5682 31.9318V34.6591H69.4318V31.9318H55.5682ZM74.7727 31.9318L75.7954 34.6591H79.7727L80.6818 31.9318H74.7727ZM86.0227 31.9318V34.6591H100V31.9318H86.0227ZM0.113636 37.2727V40H19.5455V37.2727H0.113636ZM22.2727 37.2727V40H43.4091C47.1591 40 50 37.2727 50 37.2727H22.2727ZM55.5682 37.2727V40H69.4318V37.2727H55.5682ZM76.7045 37.2727L77.7273 40H77.8409L78.8636 37.2727H76.7045ZM86.0227 37.2727V40H100V37.2727H86.0227Z" fill="black"/>
</svg>
